<svg xmlns="http://www.w3.org/2000/svg" viewBox="0 0 512 512">
<defs>
<radialGradient id="bg" cx="50%" cy="50%" r="70%">
<stop offset="0%" stop-color="#4c1d95"/>
<stop offset="100%" stop-color="#0f172a"/>
</radialGradient>
</defs>
<rect width="512" height="512" rx="100" fill="url(#bg)"/>
<line x1="214.5" y1="233.0" x2="256.0" y2="209.9" stroke="#8b5cf6" stroke-width="6" stroke-linecap="round"/>
<line x1="256.0" y1="209.9" x2="297.5" y2="233.0" stroke="#8b5cf6" stroke-width="6" stroke-linecap="round"/>
<line x1="214.5" y1="233.0" x2="205.3" y2="274.4" stroke="#8b5cf6" stroke-width="6" stroke-linecap="round"/>
<line x1="205.3" y1="274.4" x2="256.0" y2="256.0" stroke="#8b5cf6" stroke-width="6" stroke-linecap="round"/>
<line x1="256.0" y1="256.0" x2="306.7" y2="274.4" stroke="#8b5cf6" stroke-width="6" stroke-linecap="round"/>
<line x1="306.7" y1="274.4" x2="297.5" y2="233.0" stroke="#8b5cf6" stroke-width="6" stroke-linecap="round"/>
<line x1="205.3" y1="274.4" x2="256.0" y2="302.1" stroke="#8b5cf6" stroke-width="6" stroke-linecap="round"/>
<line x1="256.0" y1="256.0" x2="256.0" y2="302.1" stroke="#8b5cf6" stroke-width="6" stroke-linecap="round"/>
<line x1="306.7" y1="274.4" x2="256.0" y2="302.1" stroke="#8b5cf6" stroke-width="6" stroke-linecap="round"/>
<line x1="256.0" y1="209.9" x2="256.0" y2="256.0" stroke="#8b5cf6" stroke-width="6" stroke-linecap="round"/>
<line x1="214.5" y1="233.0" x2="256.0" y2="256.0" stroke="#8b5cf6" stroke-width="6" stroke-linecap="round"/>
<line x1="297.5" y1="233.0" x2="256.0" y2="256.0" stroke="#8b5cf6" stroke-width="6" stroke-linecap="round"/>
<circle cx="214.5" cy="233.0" r="22" fill="#a78bfa" opacity="0.5"/>
<circle cx="256.0" cy="209.9" r="22" fill="#a78bfa" opacity="0.5"/>
<circle cx="297.5" cy="233.0" r="22" fill="#a78bfa" opacity="0.5"/>
<circle cx="205.3" cy="274.4" r="22" fill="#a78bfa" opacity="0.5"/>
<circle cx="256.0" cy="256.0" r="22" fill="#a78bfa" opacity="0.5"/>
<circle cx="306.7" cy="274.4" r="22" fill="#a78bfa" opacity="0.5"/>
<circle cx="256.0" cy="302.1" r="22" fill="#a78bfa" opacity="0.5"/>
<circle cx="214.5" cy="233.0" r="14" fill="#ffffff"/>
<circle cx="211.5" cy="230.0" r="5" fill="#c4b5fd"/>
<circle cx="256.0" cy="209.9" r="14" fill="#ffffff"/>
<circle cx="253.0" cy="206.9" r="5" fill="#c4b5fd"/>
<circle cx="297.5" cy="233.0" r="14" fill="#ffffff"/>
<circle cx="294.5" cy="230.0" r="5" fill="#c4b5fd"/>
<circle cx="205.3" cy="274.4" r="14" fill="#ffffff"/>
<circle cx="202.3" cy="271.4" r="5" fill="#c4b5fd"/>
<circle cx="256.0" cy="256.0" r="14" fill="#ffffff"/>
<circle cx="253.0" cy="253.0" r="5" fill="#c4b5fd"/>
<circle cx="306.7" cy="274.4" r="14" fill="#ffffff"/>
<circle cx="303.7" cy="271.4" r="5" fill="#c4b5fd"/>
<circle cx="256.0" cy="302.1" r="14" fill="#ffffff"/>
<circle cx="253.0" cy="299.1" r="5" fill="#c4b5fd"/>
</svg>